<svg width="18" height="18" viewBox="0 0 18 18" fill="none" xmlns="http://www.w3.org/2000/svg">
<g clip-path="url(#clip0_1_9)">
<path d="M7.96154 -0.0214539C6.606 -0.0214539 5.517 1.10493 5.517 2.4667V2.76924H2.76923C2.38777 2.76924 2.07692 3.08008 2.07692 3.46155V4.15385H1.38461V5.53847H2.76923V15.9231C2.76923 17.0619 3.70731 18 4.84615 18H13.1538C14.2927 18 15.2308 17.0619 15.2308 15.9231V5.53847H16.6154V4.15385H15.9231V3.46155C15.9231 3.08008 15.6122 2.76924 15.2308 2.76924H12.483V2.46601C12.483 1.10493 11.394 -0.0214539 10.0385 -0.0214539H7.96154ZM7.96154 1.40608H10.0385C10.5951 1.40608 11.0555 1.86024 11.0555 2.46601V2.76924H6.94384V2.46601C6.94384 1.86024 7.40423 1.40678 7.96084 1.40678L7.96154 1.40608ZM4.15384 5.53847H7.70192C7.78777 5.54747 7.87292 5.55993 7.96154 5.55993H10.0385C10.1271 5.55993 10.2115 5.54747 10.2981 5.53847H13.8462V15.9231C13.8462 16.3129 13.5436 16.6154 13.1538 16.6154H4.84615C4.45638 16.6154 4.15384 16.3129 4.15384 15.9231V5.53847Z" fill="#D31F1F"/>
<path d="M5.53845 15.2308V6.92307H6.92307V15.2308H5.53845Z" fill="#D31F1F"/>
<path d="M8.30768 15.2308V6.92307H9.6923V15.2308H8.30768Z" fill="#D31F1F"/>
<path d="M11.0769 15.2308V6.92307H12.4615V15.2308H11.0769Z" fill="#D31F1F"/>
</g>
<defs>
<clipPath id="clip0_1_9">
<rect width="18" height="18" fill="white"/>
</clipPath>
</defs>
</svg>
