<svg width="18" height="18" viewBox="0 0 18 18" fill="none" xmlns="http://www.w3.org/2000/svg">
<g clip-path="url(#clip0_1_3)">
<path d="M13.9112 0.173083C13.7028 0.169485 13.4959 0.207837 13.3026 0.285858C13.1093 0.363878 12.9337 0.479973 12.7862 0.627237L12.0939 1.34101L16.6583 5.92755L17.3506 5.21447C17.5 5.06536 17.6184 4.88827 17.6993 4.69333C17.7801 4.49839 17.8217 4.28942 17.8217 4.07839C17.8217 3.86736 17.7801 3.6584 17.6993 3.46346C17.6184 3.26852 17.5 3.09143 17.3506 2.94231L15.0577 0.648699C14.753 0.345523 14.3411 0.17464 13.9112 0.173083ZM9.54 3.76478L2.05615 11.1842C1.97113 11.2278 1.8963 11.2888 1.83663 11.3634C1.77696 11.438 1.7338 11.5244 1.71 11.6169L0.108 17.0481C0.0718295 17.1654 0.0683338 17.2903 0.0978896 17.4095C0.127445 17.5286 0.188933 17.6375 0.275736 17.7243C0.362539 17.8111 0.471371 17.8726 0.590517 17.9021C0.709664 17.9317 0.834615 17.9282 0.951923 17.892L6.38238 16.2907C6.50565 16.2723 6.62142 16.2201 6.71685 16.14C6.81229 16.0598 6.88367 15.9548 6.92308 15.8365L14.3003 8.5237L13.284 7.50739L5.71154 15.1013L2.66123 15.9875L2.01185 15.3388L2.94231 12.159L10.4497 4.67308L9.54 3.76478Z" fill="#2FA7CD"/>
<path d="M10.233 3.00739L11.315 1.96893L16.0961 6.75001L14.9926 7.76701L10.233 3.00739Z" fill="#2FA7CD"/>
<path d="M3.59097 13.0458L11.1842 5.43045L12.4608 6.70637L4.84543 14.301L4.69382 13.2833L3.59097 13.0458Z" fill="#2FA7CD"/>
</g>
<defs>
<clipPath id="clip0_1_3">
<rect width="18" height="18" fill="white"/>
</clipPath>
</defs>
</svg>
